<?xml version="1.0" encoding="UTF-8"?>
<svg width="52px" height="34px" viewBox="0 0 52 34" version="1.1" xmlns="http://www.w3.org/2000/svg" xmlns:xlink="http://www.w3.org/1999/xlink">
    <!-- Generator: Sketch 53.2 (72643) - https://sketchapp.com -->
    <title>logo-beautedor</title>
    <desc>Created with Sketch.</desc>
    <g id="logo-beautedor" stroke="none" stroke-width="1" fill="none" fill-rule="evenodd">
        <g id="logo-copy-2">
            <path d="M36.5185185,30.969723 C36.4232131,30.8142312 36.320874,30.6566045 36.2027093,30.4907941 C28.3162708,19.4661772 10.3686006,18.7805189 0,21.4687122 C9.75069765,27.43184 22.9935841,36.6300511 36.5185185,30.969723" id="Fill-1" fill="#B7D9D7"></path>
            <path d="M24.9899737,32.6713065 C27.9480879,32.8893464 30.9635529,32.6080715 34,31.625337 C29.5241868,18.4672684 11.1310041,11.5863992 1.42297614,11.3334591 C-0.472748779,11.2843915 14.5077095,25.6079887 24.9899737,32.6713065" id="Fill-3" fill="#FFFFFF"></path>
            <path d="M32.7407407,31.9872468 C31.9313448,19.4814348 18.4985648,8.25568287 10.2796555,5.05467162 C8.54077306,4.37589881 18.200074,23.4634997 25.4027263,32.6973582 C27.8177251,32.8395871 30.2705559,32.6395024 32.7407407,31.9872468" id="Fill-5" fill="#B7D9D7"></path>
            <path d="M34.7087451,32.9899099 C37.4255734,20.8140864 29.530216,6.06165067 23.2025678,0.0584276826 C21.740116,-1.32908525 23.3824117,22.3443603 26.7729576,33.9733364 C29.3838314,34.093629 32.0375749,33.8139833 34.7087451,32.9899099" id="Fill-7" fill="#FFFFFF"></path>
            <path d="M36.1605199,30.8416593 C40.6627443,20.7574201 39.2306805,7.10106859 36.2865795,0.106932602 C35.5098898,-1.73864154 27.8490598,20.7567301 26.4444444,32.7279472 C29.6359204,32.8331818 32.8904261,32.2966577 36.1605199,30.8416593" id="Fill-9" fill="#B7D9D7"></path>
            <path d="M36.99702,30.4197664 C41.642399,24.8659943 45.4523702,16.0715522 45.3304881,7.72802581 C45.2988627,5.54008003 28.7765505,24.7443634 26.4444444,32.7385094 C29.9118665,32.7846939 33.4478694,32.1173105 36.99702,30.4197664" id="Fill-11" fill="#FFFFFF"></path>
            <path d="M51.6296296,17.6296296 C46.2017785,20.6830575 31.5673961,30.829317 27.7037037,34 C35.5633301,33.9151928 43.7633561,29.7795513 51.6296296,17.6296296" id="Fill-13" fill="#B7D9D7"></path>
        </g>
    </g>
</svg>